<svg aria-hidden="true" style="position: absolute; width: 0; height: 0; overflow: hidden;" version="1.1" xmlns="http://www.w3.org/2000/svg" xmlns:xlink="http://www.w3.org/1999/xlink">
<defs>
<symbol id="icon_1" viewBox="0 0 32 32">
<path fill="none" stroke="#fdb913" style="stroke: var(--color1, #fdb913)" stroke-linejoin="round" stroke-linecap="round" stroke-miterlimit="4" stroke-width="0.9846" d="M16 28c6.627 0 12-5.373 12-12s-5.373-12-12-12c-6.627 0-12 5.373-12 12s5.373 12 12 12z"></path>
<path fill="none" stroke="#fdb913" style="stroke: var(--color1, #fdb913)" stroke-linejoin="round" stroke-linecap="round" stroke-miterlimit="4" stroke-width="0.9846" d="M16 16v-12"></path>
<path fill="none" stroke="#fdb913" style="stroke: var(--color1, #fdb913)" stroke-linejoin="round" stroke-linecap="round" stroke-miterlimit="4" stroke-width="0.9846" d="M26.392 10l-20.785 12"></path>
</symbol>
<symbol id="icon_2" viewBox="0 0 32 32">
<path fill="none" stroke="#fdb913" style="stroke: var(--color1, #fdb913)" stroke-linejoin="round" stroke-linecap="round" stroke-miterlimit="4" stroke-width="0.9846" d="M12 27h-6c-0.265 0-0.52-0.105-0.707-0.293s-0.293-0.442-0.293-0.707v-5.586c-0-0.131 0.026-0.261 0.076-0.383s0.124-0.232 0.217-0.324l15-15c0.188-0.188 0.442-0.293 0.707-0.293s0.52 0.105 0.707 0.293l5.586 5.586c0.188 0.188 0.293 0.442 0.293 0.707s-0.105 0.52-0.293 0.707l-15.293 15.293z"></path>
<path fill="none" stroke="#fdb913" style="stroke: var(--color1, #fdb913)" stroke-linejoin="round" stroke-linecap="round" stroke-miterlimit="4" stroke-width="0.9846" d="M17 8l7 7"></path>
<path fill="none" stroke="#fdb913" style="stroke: var(--color1, #fdb913)" stroke-linejoin="round" stroke-linecap="round" stroke-miterlimit="4" stroke-width="0.9846" d="M27 27h-15l-6.936-6.936"></path>
</symbol>
<symbol id="icon_3" viewBox="0 0 32 32">
<path fill="none" stroke="#fdb913" style="stroke: var(--color1, #fdb913)" stroke-linejoin="round" stroke-linecap="round" stroke-miterlimit="4" stroke-width="0.9846" d="M29 7l-12 12-5-5-9 9"></path>
<path fill="none" stroke="#fdb913" style="stroke: var(--color1, #fdb913)" stroke-linejoin="round" stroke-linecap="round" stroke-miterlimit="4" stroke-width="0.9846" d="M29 15v-8h-8"></path>
</symbol>
</defs>
</svg>
