<svg aria-hidden="true" style="position: absolute; width: 0; height: 0; overflow: hidden;" version="1.1" xmlns="http://www.w3.org/2000/svg" xmlns:xlink="http://www.w3.org/1999/xlink">
<defs>
<symbol id="client-1" viewBox="0 0 107 32">
<path fill="#877e80" style="fill: var(--color1, #877e80)" d="M45.852 18.404l-2.885-7.177h-1.841l3.964 9.545h1.533l3.964-9.545h-1.841l-2.895 7.177z"></path>
<path fill="#877e80" style="fill: var(--color1, #877e80)" d="M56.006 16.789h4.567v-1.655h-4.567v-2.255h4.949v-1.655h-6.659v9.545h6.733v-1.654h-5.026l0.003-2.326z"></path>
<path fill="#877e80" style="fill: var(--color1, #877e80)" d="M71.761 17.709l-4.893-6.482h-1.475v9.545h1.709v-6.493l4.893 6.493h1.473v-9.545h-1.709l0.002 6.482z"></path>
<path fill="#877e80" style="fill: var(--color1, #877e80)" d="M80.078 11.227h-1.709v9.545h1.709v-9.545z"></path>
<path fill="#877e80" style="fill: var(--color1, #877e80)" d="M87.769 11.227l-4.169 9.545h1.859l0.919-2.151h4.388l0.919 2.151h1.845l-4.155-9.545h-1.605zM87.068 16.992l1.497-3.525 1.507 3.525h-3.003z"></path>
<path fill="#877e80" style="fill: var(--color1, #877e80)" d="M105.259 11.227l-3.516 5.244-3.516-5.244h-1.408v9.545h1.709v-6.154l2.712 4.054h1.005l2.713-4.054v6.154h1.709v-9.545h-1.408z"></path>
<path fill="#877e80" style="fill: var(--color1, #877e80)" d="M30.025 6.803c-0.842-0.841-1.885-1.453-3.031-1.779-0.323-1.075-0.902-2.055-1.689-2.857s-1.756-1.401-2.826-1.747c-1.070-0.345-2.208-0.426-3.316-0.236s-2.154 0.646-3.046 1.329c-0.902-0.714-1.966-1.196-3.098-1.402s-2.299-0.13-3.395 0.221c-1.096 0.351-2.089 0.967-2.889 1.792s-1.385 1.835-1.701 2.939c-1.077 0.322-2.059 0.901-2.863 1.685s-1.404 1.752-1.75 2.82-0.427 2.202-0.236 3.308c0.191 1.106 0.648 2.148 1.332 3.039-0.717 0.899-1.201 1.96-1.408 3.091s-0.131 2.294 0.221 3.388c0.352 1.094 0.969 2.084 1.797 2.883s1.841 1.381 2.948 1.695c0.426 1.419 1.297 2.665 2.485 3.554s2.63 1.375 4.115 1.386h0.056c1.528 0.004 3.014-0.499 4.224-1.429 1.235 0.986 2.77 1.521 4.352 1.517h0.055c2.932-2.619 6.15-4.901 9.592-6.804 1.19-1.188 1.907-2.767 2.017-4.443s-0.393-3.335-1.417-4.669c1.068-1.342 1.604-3.029 1.507-4.74s-0.821-3.327-2.033-4.54zM29.373 14.82l-3.556-3.548c0.971-1.234 1.49-2.763 1.471-4.332 0.709 0.325 1.338 0.803 1.84 1.4s0.866 1.296 1.066 2.049c0.199 0.753 0.229 1.541 0.087 2.307s-0.452 1.491-0.908 2.124zM25.576 25.494c-0.177 0.018-0.355 0.027-0.533 0.027-1.358 0.003-2.664-0.524-3.638-1.469-0.012-0.012-0.024-0.023-0.037-0.034l-0.034-0.032-0.005-0.005 0.011 0.011c-2.088-1.817-3.562-4.233-4.221-6.917 2.665 0.653 5.066 2.104 6.88 4.158l0.045 0.053 0.039 0.044c0.011 0.013 0.023 0.025 0.035 0.037l0.011 0.011 0.027 0.025 0.007 0.007c0.511 0.542 0.902 1.187 1.146 1.891s0.335 1.451 0.268 2.193v0.001zM16.035 28.221l-3.547-3.538c1.554-1.517 2.763-3.35 3.545-5.374 0.781 2.025 1.99 3.859 3.545 5.377l-3.543 3.535zM10.769 23.954l-0.017 0.016-0.055 0.049c-0.017 0.015-0.032 0.029-0.047 0.045l-0.003 0.003-0.028 0.031-0.006 0.007c-0.979 0.923-2.276 1.436-3.623 1.433-0.159 0-0.318-0.007-0.477-0.021-0.077-0.745 0.008-1.497 0.248-2.206s0.632-1.358 1.146-1.903l0.007-0.006 0.032-0.030 0.011-0.011c0.013-0.013 0.025-0.026 0.037-0.040l0.021-0.023 0.028-0.032 0.016-0.018c1.816-2.062 4.222-3.519 6.895-4.173-0.655 2.666-2.114 5.068-4.181 6.881l-0.003-0.001zM6.489 6.499c0.177-0.018 0.355-0.027 0.533-0.027 0.688-0.002 1.37 0.132 2.005 0.395s1.213 0.648 1.698 1.135h0.003c0.012 0.012 0.024 0.023 0.037 0.034 2.067 1.811 3.527 4.212 4.183 6.877-2.669-0.651-5.074-2.105-6.889-4.164l-0.006-0.007c-0.011-0.013-0.022-0.024-0.033-0.036l-0.003-0.003c-0.548-0.546-0.968-1.206-1.232-1.932s-0.364-1.502-0.294-2.271l-0.003-0.001zM16.033 3.915l3.473 3.466c-1.521 1.503-2.705 3.311-3.473 5.304-0.77-1.993-1.954-3.8-3.474-5.303l3.475-3.467zM21.276 8.058c0.021-0.017 0.041-0.035 0.061-0.055 0.49-0.492 1.073-0.882 1.716-1.147s1.331-0.401 2.026-0.399c0.158 0 0.316 0.007 0.473 0.021 0.081 0.772-0.012 1.552-0.273 2.284s-0.683 1.395-1.235 1.942c-0.024 0.023-0.046 0.048-0.067 0.074-1.813 2.046-4.208 3.49-6.867 4.14 0.654-2.658 2.109-5.051 4.168-6.859l-0.003-0.001zM7.395 12.533c1.507 1.517 3.319 2.698 5.317 3.465-2.029 0.78-3.866 1.986-5.387 3.537l-3.474-3.466 3.544-3.536zM24.739 19.536c-1.521-1.552-3.359-2.759-5.389-3.539 1.998-0.767 3.811-1.948 5.318-3.465l3.545 3.537-3.474 3.467zM24.045 3.315c0.421 0.419 0.767 0.907 1.023 1.443-1.559-0.002-3.073 0.52-4.299 1.481l-3.482-3.477c1.010-0.72 2.244-1.059 3.481-0.958s2.399 0.637 3.278 1.512l-0.002-0.001zM14.851 2.69l-3.556 3.548c-1.217-0.952-2.72-1.467-4.267-1.463h-0.075c0.326-0.708 0.805-1.336 1.403-1.837s1.299-0.865 2.054-1.064c0.755-0.199 1.545-0.229 2.313-0.088s1.495 0.451 2.13 0.905l-0.003-0.001zM3.318 8.005c0.42-0.419 0.908-0.764 1.443-1.020 0.001 1.555 0.524 3.064 1.485 4.288l-3.482 3.474c-0.723-1.007-1.065-2.237-0.963-3.472s0.639-2.393 1.517-3.269zM2.632 17.259l3.554 3.545c-0.93 1.222-1.425 2.718-1.408 4.251-0.702-0.321-1.326-0.792-1.826-1.379s-0.866-1.277-1.070-2.020c-0.205-0.743-0.243-1.522-0.114-2.282s0.424-1.482 0.864-2.116v0.001zM8.017 28.68c-0.42-0.42-0.766-0.907-1.023-1.443 1.524 0.002 3.006-0.496 4.219-1.417l3.478 3.47c-1.010 0.686-2.228 1-3.444 0.889s-2.357-0.641-3.225-1.498l-0.005-0.001zM17.297 29.363l3.553-3.544c1.203 0.913 2.674 1.405 4.186 1.401h0.077c-0.262 0.57-0.625 1.088-1.071 1.53-0.877 0.867-2.030 1.403-3.26 1.515s-2.461-0.207-3.481-0.901l-0.005-0.001zM28.741 23.992c-0.42 0.42-0.909 0.765-1.445 1.020-0.002-1.519-0.501-2.996-1.422-4.206l3.479-3.471c0.689 1.008 1.005 2.223 0.894 3.437s-0.642 2.353-1.502 3.22l-0.005-0.001z"></path>
</symbol>
<symbol id="client-2" viewBox="0 0 33 32">
<path d="M22.866 12.171c-0.315 0.001-0.63 0.035-0.938 0.102l-4.879-11.843c-0.052-0.127-0.141-0.235-0.255-0.312s-0.247-0.117-0.384-0.117c-0.137 0-0.271 0.041-0.384 0.117s-0.202 0.185-0.255 0.312l-4.919 11.941c-1.112-0.347-2.315-0.245-3.353 0.284s-1.83 1.443-2.208 2.549c-0.378 1.106-0.311 2.316 0.185 3.374s1.384 1.879 2.474 2.29c0.13 0.049 0.274 0.046 0.402-0.010s0.229-0.159 0.282-0.288l2.781-6.75c0.039 0.027 0.078 0.055 0.117 0.083l8.696 6.387c0.571 0.418 1.232 0.694 1.929 0.807s1.411 0.057 2.083-0.161c0.672-0.218 1.283-0.593 1.783-1.094s0.875-1.113 1.094-1.788 0.276-1.391 0.166-2.091c-0.11-0.701-0.383-1.365-0.798-1.939s-0.959-1.041-1.588-1.364c-0.629-0.322-1.325-0.491-2.032-0.491v0.002zM7.857 19.641c-0.723-0.411-1.272-1.073-1.543-1.862s-0.245-1.65 0.073-2.421 0.905-1.399 1.652-1.765c0.747-0.366 1.601-0.445 2.402-0.223l-2.584 6.27zM11.83 12.812l2.352-5.71 4.381 10.632-6.397-4.699c-0.11-0.080-0.223-0.155-0.337-0.224l0.002 0.002zM20.861 19.423l-0.637-0.468-5.463-13.26 1.649-4.002 7.505 18.219c-0.511 0.167-1.055 0.21-1.586 0.125s-1.034-0.296-1.469-0.614v-0zM24.871 19.418l-2.524-6.128c0.174-0.028 0.349-0.043 0.525-0.044 0.717 0.001 1.416 0.229 1.996 0.652s1.012 1.020 1.234 1.705c0.222 0.685 0.222 1.423 0.001 2.108s-0.652 1.282-1.232 1.707v0z"></path>
<path d="M2.411 26.444l-2.411 5.556h0.848l0.555-1.309h2.819l0.556 1.309h0.84l-2.403-5.556h-0.805zM2.81 27.358c0.007 0.018 0.015 0.036 0.023 0.054l1.078 2.54h-2.196l1.071-2.539c0.008-0.019 0.016-0.037 0.023-0.055z"></path>
<path d="M8.543 26.444h-0.781v5.556h3.775v-0.754h-2.993l-0-4.802z"></path>
<path d="M17.328 26.822c-0.504-0.279-1.076-0.409-1.65-0.377h-1.91v5.556h0.781v-1.922h1.129c0.574 0.032 1.146-0.099 1.65-0.377 0.22-0.169 0.398-0.387 0.521-0.637s0.186-0.524 0.186-0.803c0-0.278-0.064-0.553-0.186-0.803s-0.301-0.468-0.521-0.637v0.002zM17.246 28.262c0 0.736-0.474 1.064-1.537 1.064h-1.16v-2.127h1.16c0.379-0.024 0.758 0.048 1.101 0.211 0.146 0.086 0.264 0.212 0.341 0.363s0.11 0.321 0.095 0.49z"></path>
<path d="M24.257 28.838h-3.067v-2.393h-0.781v5.556h0.781v-2.409h3.067v2.409h0.781v-5.556h-0.781v2.393z"></path>
<path d="M30.387 26.444h-0.805l-2.411 5.556h0.848l0.555-1.309h2.82l0.555 1.309h0.84l-2.403-5.556zM29.981 27.358c0.007 0.018 0.015 0.036 0.023 0.054l1.078 2.54h-2.196l1.071-2.539c0.009-0.019 0.016-0.037 0.024-0.055z"></path>
</symbol>
<symbol id="client-3" viewBox="0 0 109 32">
<path fill="#baa952" style="fill: var(--color2, #baa952)" d="M16.503 29.578c-1.201 0.89-2.465 1.694-3.781 2.406-0.020 0.010-0.041 0.015-0.063 0.015s-0.044-0.005-0.063-0.015c-0.871-0.456-10.474-5.651-12.31-13.735-0.007-0.032-0.003-0.065 0.013-0.094s0.041-0.051 0.072-0.062 0.064-0.012 0.095-0.001c0.031 0.011 0.056 0.033 0.072 0.061 1.313 2.332 4.271 4.034 6.388 5.165 1.788 0.955 3.871 1.698 5.735 2.718 1.56 0.773 2.896 1.93 3.881 3.36 0.018 0.029 0.025 0.064 0.018 0.098s-0.026 0.064-0.055 0.084z"></path>
<path fill="#baa952" style="fill: var(--color2, #baa952)" d="M25.317 4.164v-3.863c0-0.080-0.032-0.156-0.089-0.213s-0.134-0.088-0.214-0.089h-9.301c-0.102 0.004-0.201 0.039-0.283 0.101s-0.142 0.147-0.172 0.244l-0.648 2.377c-0.031 0.097-0.091 0.182-0.172 0.244s-0.18 0.097-0.283 0.101h-4.228v-1.229c0.934-0.003 1.86-0.176 2.731-0.511 0.301-0.095 0.577-0.255 0.809-0.468s0.413-0.474 0.532-0.765c0.003-0.011 0.004-0.023 0.002-0.034s-0.007-0.022-0.014-0.032c-0.007-0.009-0.016-0.017-0.027-0.022s-0.022-0.008-0.034-0.008h-5.646c-0.566-0.055-1.137 0.041-1.653 0.28s-0.958 0.61-1.279 1.077c-0.66 1.114-0.622 2.641-0.562 3.887-1.034-1.47-1.524-3.249-1.388-5.036 0.003-0.026 0-0.052-0.008-0.077s-0.021-0.048-0.039-0.067c-0.018-0.020-0.039-0.035-0.063-0.046s-0.050-0.016-0.077-0.016h-2.911c-0.079 0-0.156 0.031-0.212 0.087s-0.088 0.131-0.088 0.21v0.761c0.166 2.681 1.674 9.762 12.658 13.038 9.26 2.762 10.638 6.998 10.908 7.741 0.003 0.009 0.009 0.016 0.016 0.022s0.016 0.009 0.025 0.009c0.009 0.001 0.018-0.002 0.026-0.006s0.015-0.011 0.019-0.020c2.565-4.868-2.776-8.373-2.776-8.373 1.423 0.148 2.795 0.607 4.017 1.346 0.043 0.024 0.091 0.037 0.141 0.036s0.098-0.014 0.14-0.038c0.043-0.025 0.078-0.060 0.103-0.103s0.038-0.091 0.038-0.14v-5.401c-0-0.075-0.017-0.149-0.050-0.217s-0.081-0.127-0.141-0.173c-0.060-0.046-0.129-0.078-0.203-0.094s-0.151-0.014-0.224 0.004c-0.46 0.115-1.021 0.226-1.119 0.245-1.378 0.372-2.843 0.268-4.153-0.296-0.298-0.144-0.557-0.355-0.758-0.616s-0.337-0.566-0.398-0.889-0.044-0.656 0.048-0.972c0.092-0.316 0.258-0.606 0.483-0.846 0.456-0.442 1.005-0.778 1.608-0.982s1.244-0.273 1.877-0.201c0.848 0.072 1.688 0.215 2.511 0.427 0.061 0.016 0.125 0.018 0.187 0.005s0.12-0.039 0.171-0.077c0.050-0.038 0.091-0.087 0.119-0.144s0.043-0.118 0.043-0.181z"></path>
<path fill="#baa952" style="fill: var(--color2, #baa952)" d="M19.19 27.36c-0.013 0.014-0.029 0.025-0.047 0.033s-0.037 0.011-0.056 0.011c-0.019-0-0.038-0.005-0.056-0.013s-0.033-0.020-0.045-0.035c-1.795-2.012-3.937-3.69-6.326-4.953-0.884-0.481-1.796-0.91-2.731-1.285-5.911-2.374-9.63-4.848-9.928-11.437v-0.21c0-0.028 0.009-0.056 0.026-0.079s0.041-0.040 0.068-0.049c0.027-0.009 0.056-0.009 0.084-0s0.051 0.026 0.068 0.049c2.166 2.944 4.929 4.665 8.283 6.318 1.372 0.676 2.765 1.229 4.129 1.802 2.296 0.841 4.426 2.075 6.293 3.646 0.461 0.369 0.837 0.832 1.103 1.358s0.415 1.102 0.438 1.69c0.023 0.588-0.082 1.174-0.306 1.718s-0.564 1.035-0.995 1.438l-0.001-0.001z"></path>
<path fill="#51544f" style="fill: var(--color3, #51544f)" d="M40.84 12.468v2.374h3.043v2.375h-3.043v4.75h-2.392v-11.874h5.97v2.375l-3.578 0.001z"></path>
<path fill="#51544f" style="fill: var(--color3, #51544f)" d="M49.669 17.832v-7.739h2.392v7.723c0 2.491 3.881 2.491 3.881 0v-7.723h2.375v7.739c-0.001 5.646-8.648 5.646-8.648 0z"></path>
<path fill="#51544f" style="fill: var(--color3, #51544f)" d="M69.838 22.035c-7.893 0-8.294-11.741 0-12.040 0.949-0.020 1.894 0.126 2.791 0.432l-0.284 2.408c-0.793-0.331-1.65-0.479-2.508-0.432-4.834 0.166-4.616 7.257 0 7.257 0.224-0.006 0.448-0.029 0.669-0.068v-3.571h2.425v5.215c-0.943 0.529-2.009 0.804-3.093 0.798z"></path>
<path fill="#51544f" style="fill: var(--color3, #51544f)" d="M78.901 21.968v-11.874h2.391v11.874h-2.391z"></path>
<path fill="#51544f" style="fill: var(--color3, #51544f)" d="M91.293 9.662h0.251l5.034 12.305h-2.692l-0.485-1.279h-3.963l-0.468 1.279h-2.709l5.034-12.305zM92.514 18.463l-1.089-3.089-1.121 3.089h2.209z"></path>
<path fill="#51544f" style="fill: var(--color3, #51544f)" d="M103.568 21.966v-9.499h-2.977v-2.358h8.345v2.358h-2.977v9.499h-2.392z"></path>
</symbol>
<symbol id="client-4" viewBox="0 0 33 32">
<path fill="#868787" style="fill: var(--color4, #868787)" d="M2.831 31.365l-0.312-0.721h-1.408l-0.313 0.721h-0.798l1.452-3.336h0.726l1.452 3.336h-0.798zM1.817 29.022l-0.423 0.969h0.842l-0.419-0.969z"></path>
<path fill="#868787" style="fill: var(--color4, #868787)" d="M8.12 29.677c0.005 0.331-0.088 0.656-0.267 0.935-0.173 0.273-0.423 0.489-0.719 0.621 0.034 0.052 0.081 0.094 0.137 0.122 0.060 0.033 0.127 0.050 0.195 0.050 0.067-0 0.133-0.011 0.197-0.031 0.055-0.016 0.107-0.041 0.154-0.074 0.071-0.053 0.132-0.12 0.178-0.196l0.391 0.463c-0.131 0.141-0.291 0.253-0.47 0.328s-0.37 0.111-0.564 0.107c-0.2-0.002-0.396-0.056-0.569-0.157-0.183-0.103-0.332-0.257-0.426-0.444-0.232 0.006-0.462-0.035-0.678-0.12s-0.412-0.212-0.577-0.374c-0.326-0.327-0.509-0.769-0.509-1.229s0.183-0.902 0.509-1.229c0.34-0.317 0.788-0.494 1.255-0.494s0.915 0.177 1.255 0.494c0.166 0.159 0.297 0.35 0.384 0.561s0.13 0.439 0.124 0.668zM7.355 29.68c0.006-0.281-0.097-0.554-0.289-0.761-0.089-0.099-0.198-0.178-0.321-0.233s-0.255-0.082-0.388-0.082c-0.134 0-0.266 0.028-0.388 0.082s-0.231 0.134-0.321 0.233c-0.186 0.21-0.288 0.48-0.288 0.76s0.102 0.55 0.288 0.76c0.090 0.098 0.199 0.177 0.321 0.231s0.254 0.082 0.388 0.082 0.266-0.028 0.388-0.082c0.122-0.054 0.231-0.133 0.321-0.231 0.192-0.207 0.296-0.48 0.289-0.762v0.003z"></path>
<path fill="#868787" style="fill: var(--color4, #868787)" d="M10.61 30.503c0.060 0.075 0.137 0.136 0.224 0.176s0.184 0.059 0.28 0.056c0.096 0.004 0.192-0.015 0.279-0.056s0.164-0.101 0.223-0.176c0.133-0.184 0.198-0.407 0.185-0.632v-1.841h0.75v1.866c0.013 0.203-0.015 0.407-0.085 0.599s-0.178 0.367-0.319 0.515c-0.286 0.251-0.654 0.389-1.035 0.389s-0.749-0.14-1.034-0.391c-0.141-0.148-0.25-0.323-0.32-0.514s-0.099-0.395-0.086-0.598v-1.866h0.75v1.842c-0.012 0.225 0.054 0.448 0.188 0.631z"></path>
<path fill="#868787" style="fill: var(--color4, #868787)" d="M16.599 31.365l-0.313-0.721h-1.408l-0.313 0.721h-0.798l1.452-3.336h0.726l1.452 3.336h-0.797zM15.585 29.022l-0.423 0.969h0.841l-0.418-0.969z"></path>
<path fill="#868787" style="fill: var(--color4, #868787)" d="M19.925 28.673v2.692h-0.75v-2.692h-0.952v-0.643h2.653v0.644l-0.952-0.001z"></path>
<path fill="#868787" style="fill: var(--color4, #868787)" d="M25.111 29.136c0.026 0.219-0.023 0.44-0.139 0.628s-0.292 0.331-0.5 0.408l0.851 1.193h-0.924l-0.746-1.064h-0.519v1.064h-0.75v-3.335h1.274c0.391-0.034 0.783 0.058 1.117 0.263 0.118 0.105 0.21 0.236 0.269 0.382s0.082 0.304 0.068 0.461zM24.208 29.532c0.050-0.052 0.089-0.114 0.113-0.182s0.033-0.14 0.027-0.212c0.008-0.069-0.001-0.138-0.026-0.203s-0.066-0.122-0.118-0.167c-0.155-0.080-0.33-0.115-0.505-0.1h-0.562v0.988h0.548c0.184 0.020 0.369-0.024 0.524-0.124z"></path>
<path fill="#868787" style="fill: var(--color4, #868787)" d="M29.264 28.030v0.663h-1.673v0.687h1.505v0.635h-1.505v0.692h1.726v0.658h-2.475v-3.336h2.422z"></path>
<path fill="#868787" style="fill: var(--color4, #868787)" d="M33.369 28.030v0.663h-1.672v0.687h1.504v0.635h-1.504v0.692h1.725v0.658h-2.476v-3.336h2.423z"></path>
<path fill="#60b59c" style="fill: var(--color5, #60b59c)" d="M27.697 17.972c-1.757-0.917-3.029 0.163-4.229 0.988-0.53 0.362-1.158 0.556-1.801 0.556s-1.271-0.194-1.801-0.556l-0.829-0.571c-0.692-0.473-1.511-0.726-2.351-0.726s-1.659 0.253-2.351 0.726l-0.829 0.571c-0.53 0.362-1.158 0.556-1.801 0.556s-1.271-0.194-1.801-0.556c-1.192-0.82-2.313-1.81-4.168-1.043-0.059 0.024-0.112 0.060-0.156 0.104s-0.080 0.098-0.104 0.156c-0.024 0.058-0.037 0.121-0.036 0.184s0.013 0.125 0.037 0.183 0.060 0.111 0.105 0.155c0.045 0.044 0.098 0.080 0.157 0.104s0.121 0.036 0.185 0.036c0.063-0 0.126-0.013 0.185-0.037 1.326-0.549 2.075 0.141 3.246 0.946 0.692 0.473 1.511 0.726 2.351 0.726s1.659-0.253 2.351-0.726l0.829-0.571c0.53-0.362 1.158-0.556 1.801-0.556s1.271 0.194 1.801 0.556c0.928 0.639 1.709 1.297 3.181 1.297 2.807 0 3.554-2.712 5.579-1.653 0.056 0.033 0.119 0.054 0.183 0.062s0.131 0.003 0.193-0.014c0.063-0.018 0.121-0.048 0.172-0.089s0.093-0.091 0.123-0.149 0.049-0.12 0.054-0.185c0.005-0.065-0.003-0.13-0.024-0.191s-0.054-0.118-0.097-0.166c-0.044-0.048-0.096-0.087-0.156-0.115l0.001-0.001z"></path>
<path fill="#60b59c" style="fill: var(--color5, #60b59c)" d="M25.047 20.976c-0.061 0.048-0.123 0.103-0.196 0.166-0.412 0.394-0.901 0.699-1.437 0.896s-1.107 0.283-1.678 0.25c-2.985-0.080-3.767-2.934-7.262-0.842-0.823 0.471-1.739 0.758-2.684 0.842-1.978 0.054-2.856-0.95-3.311-1.313-0.049-0.040-0.106-0.070-0.167-0.088s-0.125-0.024-0.189-0.018c-0.063 0.007-0.125 0.026-0.181 0.056s-0.105 0.071-0.145 0.121c-0.040 0.049-0.070 0.106-0.087 0.167s-0.023 0.125-0.016 0.188c0.007 0.063 0.027 0.124 0.058 0.179s0.073 0.104 0.123 0.143c0.044 0.035 0.1 0.084 0.164 0.141 0.502 0.474 1.095 0.841 1.745 1.079s1.341 0.342 2.032 0.305c1.113-0.089 2.191-0.424 3.157-0.979 0.507-0.406 1.139-0.627 1.791-0.627s1.283 0.221 1.791 0.627c0.966 0.555 2.044 0.89 3.157 0.979 2.177 0.058 3.159-0.901 3.941-1.523 0.1-0.080 0.164-0.195 0.178-0.322s-0.023-0.253-0.103-0.352c-0.040-0.049-0.089-0.090-0.144-0.12s-0.117-0.049-0.18-0.056c-0.127-0.014-0.255 0.023-0.355 0.103l-0-0.001z"></path>
<path fill="#60b59c" style="fill: var(--color5, #60b59c)" d="M18.724 24.2c-1.431-0.986-2.495-1.089-4.073 0-0.105 0.073-0.177 0.184-0.199 0.309s0.006 0.254 0.079 0.358 0.185 0.176 0.311 0.198c0.126 0.022 0.256-0.006 0.361-0.078 1.214-0.84 1.857-0.766 2.972 0 0.052 0.037 0.111 0.063 0.173 0.077s0.127 0.016 0.19 0.005c0.063-0.011 0.123-0.034 0.177-0.068s0.1-0.079 0.137-0.131 0.062-0.111 0.075-0.173c0.013-0.062 0.014-0.126 0.002-0.189s-0.036-0.122-0.071-0.175c-0.035-0.053-0.081-0.099-0.134-0.134v0.001z"></path>
<path fill="#60b59c" style="fill: var(--color5, #60b59c)" d="M8.6 16.283c0.892 0.614 1.696 1.298 3.242 1.298 1.84 0 3.612-1.212 3.796-3.344 0.004-0.055 0.002-2.815 0.002-2.87 0-1.503-1.855-2.886-3.035-4.204-0.099-1.111-0.225-2.056-0.348-2.902 0.068-0.064-0.066 0.122 2.168-3.222 0.069-0.106 0.093-0.235 0.067-0.358s-0.1-0.232-0.206-0.301c-0.106-0.070-0.235-0.095-0.36-0.071s-0.235 0.097-0.306 0.201l-1.572 2.352c-0.068-0.459-0.132-0.909-0.187-1.371-0.015-0.126-0.080-0.242-0.18-0.32s-0.229-0.115-0.356-0.1c-0.127 0.015-0.243 0.079-0.323 0.179s-0.116 0.227-0.101 0.353c0.176 1.482 0.437 2.825 0.64 4.651-1.254-1.037-1.65-1.426-3.231-2.621-0.102-0.075-0.23-0.108-0.356-0.090s-0.24 0.084-0.317 0.184c-0.077 0.1-0.111 0.227-0.095 0.352s0.082 0.239 0.182 0.316c0.657 0.497 1.107 0.853 1.499 1.174l-2.335-0.126c-0.128-0.006-0.252 0.038-0.347 0.122s-0.152 0.204-0.159 0.33c-0.007 0.127 0.037 0.251 0.122 0.345s0.204 0.152 0.332 0.159l3.613 0.195c0.355 0.299 0.779 0.65 1.35 1.11 0.982 1.122 2.555 2.372 2.832 3.379-0.776-0.709-1.767-1.141-2.818-1.227-0.461-0.69-1.006-1.321-1.624-1.877-0.048-0.042-0.103-0.073-0.163-0.094s-0.123-0.029-0.187-0.025c-0.063 0.004-0.125 0.020-0.182 0.048s-0.108 0.066-0.15 0.114c-0.042 0.047-0.074 0.102-0.094 0.162s-0.029 0.123-0.025 0.185c0.004 0.063 0.021 0.124 0.049 0.181s0.067 0.107 0.115 0.148c0.371 0.336 0.715 0.702 1.028 1.092-0.481 0.005-0.961 0.043-1.437 0.114l-2.988-2.466c-0.049-0.040-0.105-0.071-0.166-0.089s-0.124-0.025-0.187-0.020c-0.063 0.006-0.124 0.024-0.181 0.053s-0.106 0.069-0.146 0.118c-0.041 0.048-0.071 0.104-0.090 0.164s-0.025 0.123-0.020 0.186c0.006 0.063 0.024 0.124 0.053 0.179s0.070 0.105 0.119 0.145l1.957 1.616h-2.674c-0.128 0-0.251 0.050-0.341 0.14s-0.141 0.212-0.141 0.339c0 0.127 0.051 0.249 0.141 0.339s0.213 0.14 0.341 0.14h2.843l-3.251 2.053c-0.108 0.068-0.184 0.176-0.212 0.3s-0.005 0.254 0.064 0.361c0.069 0.107 0.178 0.183 0.302 0.211s0.256 0.005 0.364-0.063l4.371-2.761c0.938-0.14 1.892-0.132 2.827 0.024-0.92 0.866-1.968 2.018-2.024 2.078-0.086 0.094-0.13 0.219-0.124 0.346s0.064 0.246 0.159 0.331c0.095 0.085 0.22 0.129 0.348 0.123s0.248-0.063 0.334-0.158c0.015-0.017 1.413-1.553 2.352-2.372 1.587 0.813 1.497 2.068 1.497 2.949-0.109 1.75-1.751 2.272-1.939 2.326-0.464 0.13-0.951 0.159-1.427 0.084s-0.93-0.252-1.331-0.518l-0.829-0.571c-0.649-0.416-1.398-0.654-2.17-0.688s-1.539 0.135-2.223 0.492c-0.114 0.059-0.199 0.16-0.237 0.281s-0.027 0.253 0.032 0.366c0.059 0.113 0.161 0.198 0.283 0.236s0.255 0.027 0.368-0.032c0.529-0.274 1.121-0.406 1.717-0.382s1.176 0.202 1.681 0.517z"></path>
<path fill="#60b59c" style="fill: var(--color5, #60b59c)" d="M28.42 12.161c0.094 0.086 0.219 0.132 0.347 0.127s0.249-0.061 0.336-0.154c0.087-0.094 0.133-0.218 0.127-0.345s-0.061-0.247-0.155-0.333c-1-0.992-2.199-1.764-3.518-2.269l1.942-0.348c0.126-0.023 0.238-0.094 0.311-0.198s0.101-0.233 0.078-0.359c-0.023-0.125-0.095-0.236-0.2-0.309s-0.235-0.101-0.361-0.078c-4.183 0.751-3.945 0.703-4.013 0.729-0.288-0.025-0.578-0.026-0.866-0.003 0.688-0.689 1.323-1.319 1.87-1.858 0.069 0.012-0.090 0.006 2.412 0.015 0.128 0 0.251-0.050 0.342-0.139s0.142-0.211 0.142-0.338c0-0.127-0.050-0.249-0.14-0.339s-0.213-0.141-0.341-0.141l-1.449-0.005c0.598-0.584 0.957-0.929 0.966-0.938 0.046-0.044 0.082-0.096 0.107-0.154s0.039-0.12 0.040-0.183c0.001-0.063-0.010-0.125-0.034-0.184s-0.058-0.112-0.102-0.157c-0.044-0.045-0.097-0.081-0.155-0.106s-0.121-0.038-0.184-0.040c-0.063-0.001-0.126 0.010-0.185 0.034s-0.113 0.058-0.158 0.101c-0.012 0.012-0.746 0.72-1.872 1.827 0.127-1.106 0.188-1.867 0.394-3.333 0.009-0.062 0.005-0.126-0.011-0.187s-0.044-0.118-0.082-0.168c-0.038-0.050-0.086-0.092-0.141-0.124s-0.115-0.053-0.178-0.061c-0.063-0.009-0.127-0.005-0.188 0.011s-0.119 0.044-0.17 0.082c-0.051 0.038-0.093 0.085-0.125 0.14s-0.053 0.114-0.062 0.177c-0.275 1.964-0.301 2.722-0.546 4.561-0.464 0.462-0.964 0.962-1.485 1.487l-0.213-3.006c-0.009-0.127-0.068-0.245-0.165-0.328s-0.223-0.125-0.35-0.116c-0.128 0.009-0.247 0.068-0.331 0.164s-0.126 0.221-0.117 0.348c0.278 3.938 0.258 3.69 0.269 3.744-0.506 0.328-0.952 0.739-1.319 1.215-0.249-0.864-0.563-1.164-1.056-1.76-0.341-0.412-0.778-0.942-1.286-1.545l0.467-1.094c1.741-1.454 4.305-3.66 5.059-4.31 0.097-0.083 0.156-0.201 0.165-0.328s-0.033-0.252-0.117-0.348c-0.084-0.096-0.203-0.155-0.33-0.164s-0.254 0.033-0.35 0.116c-0.56 0.482-2.115 1.82-3.589 3.070l1.473-3.452c0.046-0.116 0.044-0.246-0.004-0.361s-0.141-0.207-0.257-0.256c-0.116-0.049-0.246-0.051-0.363-0.005s-0.212 0.134-0.264 0.248l-1.121 2.629c-0.139-0.97-0.278-1.785-0.409-2.652-0.009-0.062-0.031-0.122-0.064-0.176s-0.076-0.101-0.127-0.139c-0.051-0.037-0.109-0.065-0.17-0.080s-0.125-0.018-0.188-0.009c-0.063 0.009-0.123 0.031-0.177 0.063s-0.102 0.075-0.14 0.126c-0.038 0.051-0.065 0.108-0.080 0.169s-0.018 0.125-0.009 0.187c0.199 1.32 0.417 2.516 0.615 4.264l-0.716 1.681c-0.181-0.212-0.367-0.429-0.559-0.651l-0.299-2.459c-0.015-0.126-0.081-0.241-0.181-0.32s-0.229-0.114-0.356-0.099c-0.127 0.015-0.243 0.080-0.322 0.18s-0.115 0.227-0.1 0.354l0.334 2.749c1.536 1.77 2.559 3.037 3.161 3.756 0.178 0.212 0.746 1.052 0.583 2.896-0.028 0.399-0.032 0.8-0.013 1.2 0.010 0.714 0.231 1.41 0.636 2s0.974 1.051 1.639 1.323c0.378 0.107 0.769 0.162 1.162 0.161 1.537 0 2.334-0.673 3.242-1.298 0.502-0.361 1.107-0.554 1.727-0.552s1.223 0.199 1.723 0.563c0.105 0.072 0.235 0.1 0.361 0.078s0.238-0.094 0.311-0.198 0.101-0.233 0.078-0.358c-0.023-0.125-0.095-0.236-0.2-0.308-0.662-0.473-1.457-0.728-2.273-0.73s-1.611 0.249-2.276 0.718l-0.829 0.571c-0.4 0.266-0.854 0.443-1.33 0.518s-0.963 0.046-1.427-0.084c-0.47-0.216-0.869-0.56-1.148-0.993s-0.429-0.936-0.43-1.451c-0.092-2.11 0.402-2.816 1.208-3.498 0.665-0.596 1.517-0.945 2.412-0.988l1.993 3.092c0.034 0.053 0.078 0.099 0.131 0.135s0.111 0.061 0.172 0.075c0.062 0.014 0.126 0.015 0.188 0.004s0.122-0.034 0.175-0.068c0.053-0.034 0.1-0.078 0.136-0.13s0.062-0.11 0.076-0.171c0.014-0.061 0.015-0.125 0.004-0.187s-0.034-0.121-0.069-0.174l-1.587-2.464c0.142 0.030 0.287 0.067 0.434 0.109 1.547 0.423 2.955 1.241 4.086 2.371z"></path>
</symbol>
<symbol id="client-5" viewBox="0 0 66 32">
<path fill="#38415f" style="fill: var(--color6, #38415f)" d="M61.393 13.066v1.317h1.762v4.551h1.41v-4.551h1.788v-1.317h-4.96z"></path>
<path fill="#38415f" style="fill: var(--color6, #38415f)" d="M50.521 17.617v-1.038h2.24v-1.233h-2.24v-0.962h2.862v-1.317h-4.272v5.867h4.322v-1.316h-2.912z"></path>
<path fill="#38415f" style="fill: var(--color6, #38415f)" d="M45.554 13.066v1.341c0 1.065 0.017 2.102 0.008 2.102h-0.008c-0.008 0-0.906-1.265-1.284-1.768l-1.25-1.676h-1.326v5.867h1.41v-1.299c0-1.282-0.017-2.188-0.008-2.188h0.008c0.008 0 0.795 1.115 1.334 1.852l1.2 1.635h1.326v-5.867h-1.41z"></path>
<path fill="#38415f" style="fill: var(--color6, #38415f)" d="M38.134 13.066v1.341c0 1.065 0.017 2.102 0.008 2.102h-0.008c-0.008 0-0.907-1.265-1.284-1.768l-1.25-1.676h-1.326v5.867h1.412v-1.299c0-1.282-0.017-2.188-0.008-2.188h0.008c0.008 0 0.795 1.115 1.334 1.852l1.2 1.635h1.326v-5.867h-1.412z"></path>
<path fill="#38415f" style="fill: var(--color6, #38415f)" d="M27.92 16c0.015-0.309 0.121-0.607 0.304-0.857s0.436-0.44 0.727-0.548c0.291-0.108 0.607-0.128 0.909-0.058s0.577 0.227 0.791 0.452c0.214 0.225 0.356 0.507 0.411 0.812s0.018 0.619-0.105 0.903c-0.123 0.284-0.326 0.527-0.586 0.697s-0.563 0.26-0.873 0.259c-0.216 0.007-0.432-0.032-0.632-0.114s-0.381-0.206-0.53-0.362c-0.149-0.157-0.263-0.343-0.335-0.547s-0.1-0.421-0.081-0.636zM26.451 16c0.001 0.603 0.181 1.191 0.517 1.692s0.813 0.89 1.371 1.12c0.558 0.23 1.171 0.289 1.763 0.171s1.135-0.409 1.561-0.836c0.426-0.427 0.716-0.97 0.833-1.561s0.056-1.204-0.176-1.76c-0.232-0.556-0.623-1.032-1.126-1.366s-1.092-0.512-1.696-0.511c-0.403-0.007-0.803 0.067-1.176 0.218s-0.712 0.376-0.997 0.66c-0.284 0.285-0.508 0.624-0.658 0.997s-0.223 0.773-0.215 1.175z"></path>
<path fill="#38415f" style="fill: var(--color6, #38415f)" d="M24.209 17.173c-0.232 0.232-0.528 0.39-0.851 0.454s-0.656 0.031-0.96-0.095-0.563-0.338-0.746-0.611c-0.183-0.273-0.28-0.594-0.28-0.922s0.097-0.649 0.28-0.922c0.183-0.273 0.442-0.486 0.746-0.611s0.638-0.159 0.96-0.095c0.322 0.064 0.618 0.222 0.851 0.454l0.985-0.984c-0.427-0.427-0.972-0.717-1.564-0.835s-1.207-0.057-1.765 0.174c-0.558 0.231-1.035 0.622-1.371 1.124s-0.515 1.092-0.515 1.695 0.179 1.193 0.515 1.695c0.336 0.502 0.813 0.893 1.371 1.124s1.172 0.291 1.765 0.174 1.137-0.408 1.564-0.835l-0.985-0.983z"></path>
<path fill="#38415f" style="fill: var(--color6, #38415f)" d="M59.132 17.173c-0.232 0.232-0.528 0.39-0.851 0.454s-0.656 0.031-0.96-0.095-0.563-0.338-0.745-0.611c-0.183-0.273-0.28-0.594-0.28-0.922s0.097-0.649 0.28-0.922c0.182-0.273 0.442-0.486 0.745-0.611s0.638-0.159 0.96-0.095c0.322 0.064 0.618 0.222 0.851 0.454l0.985-0.984c-0.427-0.427-0.972-0.717-1.564-0.835s-1.207-0.057-1.765 0.174c-0.558 0.231-1.035 0.622-1.371 1.124s-0.515 1.092-0.515 1.695 0.179 1.193 0.515 1.695c0.336 0.502 0.813 0.893 1.371 1.124s1.173 0.291 1.765 0.174c0.592-0.118 1.137-0.408 1.564-0.835l-0.985-0.983z"></path>
<path fill="#48bcc7" style="fill: var(--color7, #48bcc7)" d="M13.020 14.36l-9.059-9.047c-0.215-0.215-0.471-0.386-0.753-0.502s-0.583-0.176-0.888-0.176c-0.305 0-0.606 0.060-0.888 0.176s-0.537 0.287-0.753 0.502c-0.215 0.215-0.386 0.471-0.503 0.752s-0.177 0.583-0.177 0.887c0 0.304 0.060 0.606 0.177 0.887s0.288 0.537 0.503 0.752l7.418 7.409 1.641-1.639c0.215-0.215 0.471-0.386 0.753-0.502s0.583-0.176 0.888-0.176c0.305 0 0.606 0.060 0.888 0.176s0.537 0.287 0.753 0.502z"></path>
<path fill="#48bcc7" style="fill: var(--color7, #48bcc7)" d="M11.379 18.318c-0.305 0-0.607-0.059-0.888-0.176s-0.537-0.288-0.753-0.503l-1.64-1.638-7.416 7.408c-0.219 0.214-0.394 0.47-0.514 0.752s-0.182 0.585-0.184 0.892c-0.002 0.306 0.058 0.61 0.174 0.894s0.288 0.541 0.505 0.758c0.217 0.217 0.475 0.388 0.759 0.505s0.588 0.176 0.895 0.174c0.307-0.002 0.61-0.064 0.893-0.184s0.539-0.294 0.753-0.513l9.059-9.047c-0.215 0.216-0.472 0.387-0.754 0.503s-0.584 0.176-0.889 0.176z"></path>
<path fill="#329096" style="fill: var(--color8, #329096)" d="M11.379 18.318c0.382 0 0.757-0.094 1.094-0.274s0.624-0.439 0.836-0.756c0.212-0.317 0.342-0.681 0.38-1.060s-0.019-0.762-0.165-1.114c-0.146-0.352-0.377-0.663-0.672-0.905s-0.645-0.407-1.019-0.482c-0.374-0.074-0.761-0.055-1.126 0.055s-0.697 0.309-0.967 0.579l-1.641 1.639 1.641 1.639c0.215 0.216 0.471 0.386 0.753 0.503s0.584 0.176 0.888 0.176z"></path>
<path fill="#b329b7" style="fill: var(--color9, #b329b7)" d="M14.38 13.003c-0.216-0.215-0.386-0.471-0.503-0.752s-0.177-0.582-0.177-0.887 0.060-0.606 0.177-0.887c0.117-0.281 0.288-0.537 0.503-0.752l1.641-1.639-7.418-7.408c-0.438-0.423-1.024-0.657-1.633-0.652s-1.192 0.249-1.622 0.679c-0.431 0.43-0.675 1.012-0.68 1.62s0.23 1.194 0.653 1.631l9.059 9.047z"></path>
<path fill="#b329b7" style="fill: var(--color9, #b329b7)" d="M17.662 13.003l4.245-4.24c0.427-0.436 0.665-1.023 0.662-1.633s-0.248-1.195-0.68-1.626c-0.432-0.432-1.017-0.675-1.628-0.679s-1.199 0.234-1.636 0.661l-2.605 2.601 1.641 1.639c0.216 0.215 0.387 0.471 0.503 0.752s0.177 0.582 0.177 0.887-0.060 0.606-0.177 0.887c-0.117 0.281-0.288 0.537-0.503 0.752z"></path>
<path fill="#86258e" style="fill: var(--color10, #86258e)" d="M14.38 13.003c0.438 0.423 1.024 0.657 1.633 0.653s1.192-0.249 1.622-0.679c0.431-0.43 0.675-1.012 0.68-1.62s-0.23-1.194-0.653-1.631l-1.641-1.639-1.641 1.639c-0.215 0.215-0.386 0.471-0.503 0.752s-0.177 0.582-0.177 0.887c0 0.304 0.060 0.606 0.177 0.887s0.288 0.537 0.503 0.752z"></path>
<path fill="#aecb40" style="fill: var(--color11, #aecb40)" d="M14.38 18.996l-9.059 9.047c-0.215 0.215-0.386 0.471-0.503 0.752s-0.177 0.582-0.177 0.887c0 0.304 0.060 0.606 0.177 0.887s0.288 0.537 0.503 0.752c0.215 0.215 0.471 0.386 0.753 0.502s0.583 0.176 0.888 0.176 0.606-0.060 0.888-0.176c0.281-0.116 0.537-0.287 0.753-0.502l7.418-7.408-1.641-1.639c-0.215-0.215-0.386-0.471-0.503-0.752s-0.177-0.582-0.177-0.887c0-0.304 0.060-0.606 0.177-0.887s0.288-0.537 0.503-0.752z"></path>
<path fill="#aecb40" style="fill: var(--color11, #aecb40)" d="M17.662 18.996c0.216 0.215 0.387 0.471 0.503 0.752s0.177 0.583 0.177 0.887-0.060 0.606-0.177 0.887c-0.117 0.281-0.288 0.537-0.503 0.752l-1.641 1.638 2.605 2.601c0.437 0.427 1.024 0.664 1.636 0.661s1.196-0.247 1.628-0.679c0.432-0.431 0.676-1.016 0.68-1.626s-0.234-1.197-0.662-1.633l-4.245-4.24z"></path>
<path fill="#94a839" style="fill: var(--color12, #94a839)" d="M17.662 18.996c-0.215-0.219-0.471-0.393-0.753-0.513s-0.586-0.182-0.893-0.184c-0.307-0.002-0.611 0.058-0.895 0.174s-0.542 0.288-0.759 0.505c-0.217 0.217-0.389 0.474-0.505 0.758s-0.176 0.587-0.174 0.894 0.064 0.61 0.184 0.892c0.12 0.282 0.294 0.538 0.514 0.752l1.641 1.639 1.641-1.639c0.216-0.215 0.387-0.471 0.503-0.752s0.177-0.583 0.177-0.887-0.060-0.606-0.177-0.887c-0.117-0.281-0.288-0.537-0.503-0.752z"></path>
</symbol>
<symbol id="client-6" viewBox="0 0 38 32">
<path fill="#2fc77a" style="fill: var(--color13, #2fc77a)" d="M2.276 9.47c-0.049-0.033-0.106-0.052-0.165-0.052s-0.117 0.016-0.166 0.048c-0.049 0.032-0.088 0.078-0.111 0.133s-0.030 0.114-0.019 0.172c0.011 0.058 0.039 0.112 0.080 0.154s0.094 0.071 0.152 0.083c0.058 0.012 0.118 0.007 0.172-0.015s0.102-0.060 0.135-0.108c0.045-0.065 0.062-0.145 0.047-0.223s-0.059-0.146-0.124-0.191z"></path>
<path fill="#2fc77a" style="fill: var(--color13, #2fc77a)" d="M1.65 11.363c-0.108-0.057-0.231-0.081-0.352-0.069s-0.237 0.061-0.331 0.139-0.163 0.182-0.198 0.3c-0.035 0.117-0.035 0.243 0.001 0.36s0.106 0.221 0.2 0.298 0.21 0.125 0.332 0.137c0.122 0.012 0.244-0.013 0.352-0.071s0.196-0.147 0.253-0.255c0.077-0.145 0.093-0.315 0.045-0.472s-0.157-0.289-0.301-0.366z"></path>
<path fill="#2fc77a" style="fill: var(--color13, #2fc77a)" d="M1.285 14.013c-0.173-0.068-0.362-0.084-0.544-0.045s-0.348 0.132-0.477 0.265-0.216 0.303-0.249 0.486c-0.033 0.183-0.012 0.372 0.062 0.543s0.197 0.316 0.353 0.417c0.156 0.101 0.339 0.153 0.525 0.15s0.367-0.061 0.519-0.167c0.153-0.106 0.271-0.255 0.339-0.428 0.045-0.115 0.068-0.238 0.066-0.361s-0.028-0.245-0.077-0.359-0.12-0.216-0.209-0.302c-0.089-0.086-0.193-0.153-0.308-0.199z"></path>
<path fill="#2fc77a" style="fill: var(--color13, #2fc77a)" d="M1.746 17.261c-0.24-0.066-0.495-0.058-0.731 0.021s-0.444 0.227-0.597 0.424-0.243 0.436-0.261 0.685c-0.017 0.249 0.039 0.498 0.163 0.714s0.308 0.392 0.531 0.503 0.474 0.154 0.721 0.123c0.247-0.031 0.48-0.135 0.668-0.299s0.324-0.379 0.389-0.62c0.044-0.16 0.055-0.327 0.035-0.492s-0.074-0.323-0.156-0.467-0.192-0.27-0.323-0.372c-0.131-0.102-0.28-0.176-0.44-0.22z"></path>
<path fill="#2fc77a" style="fill: var(--color13, #2fc77a)" d="M4.54 23.052c0.050-0.309 0.007-0.626-0.123-0.911s-0.341-0.524-0.607-0.689c-0.266-0.164-0.575-0.246-0.887-0.235s-0.614 0.115-0.868 0.298-0.447 0.437-0.556 0.731c-0.109 0.293-0.129 0.613-0.057 0.917s0.232 0.581 0.461 0.795c0.229 0.213 0.515 0.354 0.824 0.404 0.205 0.033 0.415 0.026 0.617-0.022s0.393-0.135 0.561-0.257c0.168-0.122 0.311-0.276 0.42-0.453s0.182-0.374 0.215-0.579z"></path>
<path fill="#2fc77a" style="fill: var(--color13, #2fc77a)" opacity="0.2" d="M12.953 31.726c0.005-0.059-0.008-0.117-0.037-0.169s-0.072-0.093-0.124-0.12c-0.052-0.027-0.112-0.037-0.17-0.030s-0.113 0.031-0.158 0.070c-0.045 0.038-0.077 0.089-0.093 0.146s-0.014 0.117 0.004 0.173c0.018 0.056 0.053 0.105 0.099 0.141s0.102 0.058 0.161 0.062c0.078 0.006 0.156-0.020 0.215-0.071s0.097-0.124 0.103-0.202z"></path>
<path fill="#2fc77a" style="fill: var(--color13, #2fc77a)" opacity="0.4" d="M10.595 30.308c-0.12-0.023-0.245-0.010-0.357 0.038s-0.209 0.128-0.276 0.231c-0.067 0.103-0.102 0.223-0.101 0.346s0.039 0.242 0.108 0.343 0.166 0.18 0.28 0.226c0.114 0.046 0.238 0.057 0.358 0.032s0.23-0.085 0.315-0.173c0.086-0.088 0.143-0.199 0.166-0.319 0.030-0.161-0.004-0.328-0.097-0.464s-0.235-0.229-0.396-0.259z"></path>
<path fill="#2fc77a" style="fill: var(--color13, #2fc77a)" opacity="0.6" d="M8.17 28.487c-0.178-0.055-0.367-0.056-0.545-0.003s-0.336 0.158-0.455 0.301c-0.119 0.143-0.192 0.319-0.211 0.504s0.017 0.372 0.104 0.536 0.22 0.3 0.384 0.388c0.163 0.088 0.349 0.126 0.535 0.109s0.361-0.089 0.505-0.207c0.144-0.117 0.25-0.275 0.305-0.453 0.073-0.238 0.049-0.496-0.068-0.717s-0.315-0.386-0.553-0.46z"></path>
<path fill="#2fc77a" style="fill: var(--color13, #2fc77a)" opacity="0.8" d="M5.892 25.614c-0.229-0.099-0.482-0.128-0.727-0.083s-0.472 0.162-0.651 0.335c-0.179 0.174-0.303 0.397-0.355 0.641s-0.031 0.498 0.060 0.731c0.092 0.232 0.25 0.432 0.455 0.574s0.448 0.22 0.697 0.224c0.249 0.004 0.494-0.066 0.704-0.202s0.374-0.33 0.473-0.559c0.132-0.307 0.138-0.655 0.015-0.966s-0.365-0.561-0.671-0.694z"></path>
<path fill="#2fc77a" style="fill: var(--color13, #2fc77a)" d="M11.975 0.198c-0.020-0.056-0.056-0.104-0.103-0.139s-0.104-0.056-0.163-0.058c-0.059-0.003-0.117 0.012-0.168 0.042s-0.091 0.075-0.116 0.128c-0.025 0.053-0.034 0.113-0.025 0.171s0.034 0.113 0.074 0.157c0.040 0.044 0.091 0.075 0.148 0.089s0.117 0.011 0.173-0.008c0.074-0.027 0.135-0.082 0.169-0.153s0.038-0.153 0.012-0.228z"></path>
<path fill="#2fc77a" style="fill: var(--color13, #2fc77a)" d="M10.358 1.36c-0.054-0.11-0.139-0.202-0.245-0.263s-0.227-0.090-0.35-0.082c-0.122 0.008-0.239 0.052-0.336 0.126s-0.17 0.176-0.21 0.292c-0.040 0.116-0.044 0.241-0.012 0.359s0.097 0.225 0.189 0.306c0.092 0.081 0.206 0.133 0.327 0.149s0.245-0.004 0.354-0.058c0.147-0.072 0.26-0.2 0.313-0.356s0.042-0.326-0.030-0.473z"></path>
<path fill="#2fc77a" style="fill: var(--color13, #2fc77a)" d="M8.507 3.289c-0.1-0.157-0.244-0.281-0.414-0.356s-0.359-0.098-0.542-0.066c-0.183 0.032-0.353 0.118-0.487 0.247s-0.228 0.294-0.268 0.476-0.026 0.371 0.041 0.545c0.067 0.174 0.184 0.323 0.336 0.43s0.333 0.166 0.518 0.171c0.186 0.004 0.369-0.047 0.526-0.147 0.104-0.066 0.194-0.152 0.265-0.254s0.121-0.215 0.148-0.336c0.027-0.121 0.030-0.245 0.008-0.367s-0.066-0.238-0.133-0.343z"></path>
<path fill="#2fc77a" style="fill: var(--color13, #2fc77a)" d="M6.974 6.187c-0.156-0.195-0.366-0.339-0.603-0.415s-0.492-0.078-0.732-0.009c-0.239 0.070-0.453 0.209-0.613 0.4s-0.261 0.426-0.288 0.674c-0.027 0.248 0.019 0.499 0.134 0.721s0.293 0.404 0.511 0.524c0.218 0.12 0.468 0.173 0.716 0.152s0.485-0.116 0.679-0.272c0.129-0.104 0.237-0.232 0.316-0.377s0.13-0.305 0.148-0.47c0.018-0.165 0.004-0.331-0.042-0.491s-0.123-0.308-0.227-0.437z"></path>
<path fill="#2fc77a" style="fill: var(--color13, #2fc77a)" d="M5.838 12.517c0.222-0.221 0.374-0.502 0.436-0.809s0.032-0.625-0.086-0.915-0.32-0.538-0.579-0.713c-0.259-0.175-0.565-0.269-0.877-0.27s-0.619 0.090-0.879 0.263c-0.261 0.173-0.464 0.419-0.585 0.708s-0.153 0.607-0.094 0.915 0.209 0.59 0.429 0.812c0.146 0.148 0.32 0.265 0.511 0.346s0.397 0.122 0.605 0.123 0.413-0.039 0.606-0.118c0.192-0.079 0.367-0.195 0.514-0.341z"></path>
<path fill="#2fc77a" style="fill: var(--color13, #2fc77a)" opacity="0.2" d="M7.554 24.488c0.038-0.045 0.062-0.1 0.068-0.159s-0.004-0.118-0.031-0.17-0.069-0.096-0.12-0.124c-0.052-0.029-0.11-0.041-0.169-0.036s-0.114 0.027-0.16 0.064c-0.046 0.037-0.080 0.086-0.098 0.143s-0.019 0.116-0.002 0.173c0.016 0.057 0.049 0.107 0.094 0.145 0.060 0.051 0.138 0.075 0.217 0.069s0.151-0.044 0.202-0.104z"></path>
<path fill="#2fc77a" style="fill: var(--color13, #2fc77a)" opacity="0.4" d="M6.478 21.954c-0.084-0.089-0.192-0.152-0.311-0.179s-0.244-0.019-0.358 0.024c-0.114 0.043-0.213 0.12-0.284 0.219s-0.111 0.218-0.115 0.341c-0.004 0.122 0.029 0.243 0.093 0.347s0.159 0.186 0.27 0.237 0.235 0.067 0.356 0.046c0.121-0.020 0.233-0.076 0.322-0.16 0.12-0.112 0.189-0.268 0.195-0.432s-0.055-0.324-0.167-0.443z"></path>
<path fill="#2fc77a" style="fill: var(--color13, #2fc77a)" opacity="0.6" d="M5.585 19.052c-0.111-0.149-0.264-0.262-0.44-0.323s-0.365-0.070-0.545-0.024c-0.18 0.046-0.342 0.145-0.467 0.283s-0.204 0.311-0.231 0.495c-0.026 0.184 0.003 0.372 0.083 0.54s0.209 0.308 0.369 0.403c0.16 0.095 0.344 0.14 0.53 0.13s0.364-0.075 0.513-0.187c0.199-0.15 0.331-0.373 0.366-0.619s-0.029-0.498-0.178-0.697z"></path>
<path fill="#2fc77a" style="fill: var(--color13, #2fc77a)" opacity="0.8" d="M5.428 15.387c-0.127-0.215-0.315-0.387-0.539-0.495s-0.476-0.147-0.723-0.112c-0.247 0.035-0.478 0.143-0.663 0.31s-0.318 0.385-0.38 0.627-0.051 0.497 0.032 0.732c0.083 0.236 0.233 0.441 0.433 0.591s0.439 0.237 0.688 0.251 0.496-0.047 0.711-0.174c0.288-0.171 0.496-0.449 0.579-0.773s0.034-0.668-0.136-0.957z"></path>
<path fill="#292526" style="fill: var(--color14, #292526)" d="M12.518 19.722v-0.861c0.108 0.093 0.227 0.172 0.354 0.235 0.14 0.070 0.285 0.129 0.434 0.177 0.151 0.047 0.304 0.085 0.46 0.112 0.141 0.024 0.283 0.037 0.426 0.038 0.353 0.026 0.706-0.062 1.006-0.25 0.164-0.138 0.276-0.329 0.316-0.54s0.007-0.429-0.094-0.619c-0.080-0.132-0.184-0.247-0.307-0.341-0.144-0.113-0.299-0.211-0.462-0.295-0.178-0.094-0.37-0.194-0.576-0.298-0.216-0.111-0.42-0.222-0.608-0.335-0.178-0.105-0.342-0.231-0.49-0.375-0.137-0.133-0.248-0.29-0.329-0.464-0.089-0.216-0.129-0.449-0.118-0.682s0.075-0.461 0.185-0.667c0.123-0.208 0.29-0.386 0.49-0.521 0.212-0.14 0.447-0.243 0.694-0.304 0.259-0.068 0.525-0.102 0.792-0.102 0.458-0.029 0.917 0.047 1.342 0.222v0.822c-0.421-0.27-0.915-0.404-1.414-0.383-0.16-0-0.32 0.017-0.477 0.050-0.15 0.030-0.294 0.086-0.426 0.163-0.122 0.073-0.226 0.173-0.303 0.292-0.081 0.13-0.122 0.281-0.117 0.435-0.004 0.143 0.027 0.284 0.089 0.413 0.065 0.123 0.154 0.232 0.262 0.319 0.132 0.106 0.274 0.199 0.424 0.278 0.167 0.089 0.359 0.189 0.575 0.295 0.223 0.111 0.434 0.227 0.636 0.349 0.19 0.114 0.367 0.249 0.525 0.404 0.146 0.142 0.267 0.308 0.358 0.491 0.091 0.193 0.137 0.404 0.133 0.618 0.008 0.271-0.054 0.539-0.18 0.779-0.118 0.21-0.284 0.389-0.486 0.521-0.216 0.139-0.456 0.237-0.707 0.29-0.276 0.061-0.559 0.091-0.842 0.089-0.122-0.001-0.244-0.009-0.365-0.023-0.145-0.016-0.293-0.039-0.443-0.071-0.145-0.028-0.288-0.066-0.428-0.113-0.115-0.035-0.226-0.084-0.328-0.148z"></path>
<path fill="#292526" style="fill: var(--color14, #292526)" d="M19.155 17.617v2.358h-0.729v-6.24h1.711c0.558-0.035 1.11 0.139 1.548 0.487 0.187 0.174 0.333 0.388 0.428 0.626s0.137 0.493 0.122 0.749c0.008 0.272-0.042 0.542-0.147 0.793s-0.264 0.476-0.464 0.659c-0.456 0.396-1.047 0.599-1.649 0.567h-0.82v0.001zM19.155 14.396v2.558h0.764c0.413 0.029 0.823-0.094 1.153-0.345 0.135-0.123 0.241-0.274 0.31-0.443s0.099-0.351 0.089-0.534c0-0.823-0.487-1.235-1.46-1.236h-0.855z"></path>
<path fill="#292526" style="fill: var(--color14, #292526)" d="M25.635 13.735v0.626h-0.608v4.986h0.608v0.626h-1.945v-0.626h0.607v-4.986h-0.609v-0.626h1.947z"></path>
<path fill="#292526" style="fill: var(--color14, #292526)" d="M32.576 19.975h-0.895l-3.205-4.972c-0.080-0.123-0.147-0.255-0.2-0.392h-0.025c0.030 0.285 0.042 0.571 0.035 0.857v4.507h-0.731v-6.24h0.947l3.119 4.895c0.131 0.204 0.214 0.342 0.252 0.418h0.018c-0.036-0.305-0.051-0.611-0.044-0.918v-4.395h0.729v6.24h-0.001z"></path>
<path fill="#292526" style="fill: var(--color14, #292526)" d="M38.4 19.975h-3.301v-6.24h3.162v0.661h-2.433v2.076h2.25v0.656h-2.25v2.184h2.572v0.663z"></path>
</symbol>
</defs>
</svg>
